<svg xmlns="http://www.w3.org/2000/svg" width="1254" height="1254" viewBox="0 0 1254 1254" role="img" aria-labelledby="title desc">
  <title id="title">Tagsmith logo</title>
  <desc id="desc">A centered orange tag-and-hammer mark above a white anvil on a dark background.</desc>
  <rect width="1254" height="1254" fill="#1B1B1F"/>
  <path d="M 915.0,588.0 907.0,575.0 844.0,511.0 838.0,511.0 753.0,596.0 753.0,598.0 807.0,653.0 806.0,663.0 766.0,703.0 758.0,706.0 754.0,705.0 664.0,615.0 655.0,615.0 647.0,633.0 616.0,727.0 622.0,724.0 693.0,664.0 693.0,668.0 662.0,715.0 654.0,730.0 916.0,731.0 918.0,730.0 918.0,598.0 Z M 359.0,309.0 345.0,322.0 339.0,332.0 335.0,345.0 335.0,606.0 342.0,623.0 449.0,731.0 565.0,730.0 543.0,698.0 492.0,631.0 494.0,630.0 607.0,727.0 610.0,727.0 579.0,562.0 579.0,542.0 679.0,443.0 686.0,442.0 691.0,444.0 734.0,487.0 736.0,491.0 735.0,499.0 698.0,536.0 698.0,545.0 712.0,557.0 799.0,470.0 799.0,468.0 639.0,307.0 631.0,303.0 623.0,301.0 381.0,301.0 Z M 427.0,363.0 448.0,364.0 461.0,370.0 474.0,383.0 480.0,395.0 482.0,405.0 480.0,422.0 471.0,438.0 460.0,448.0 440.0,455.0 425.0,454.0 409.0,447.0 395.0,432.0 389.0,416.0 389.0,402.0 396.0,384.0 410.0,370.0 Z" fill="#FF7A00" fill-rule="evenodd"/>
  <path d="M 390.0,758.0 390.0,767.0 394.0,778.0 410.0,796.0 419.0,802.0 455.0,817.0 509.0,829.0 527.0,835.0 537.0,841.0 545.0,849.0 550.0,858.0 552.0,865.0 552.0,882.0 548.0,895.0 536.0,914.0 518.0,931.0 500.0,943.0 484.0,950.0 484.0,965.0 575.0,964.0 581.0,953.0 601.0,935.0 615.0,928.0 640.0,922.0 669.0,924.0 693.0,933.0 703.0,940.0 716.0,953.0 722.0,964.0 816.0,965.0 817.0,950.0 798.0,941.0 782.0,930.0 768.0,917.0 757.0,902.0 749.0,881.0 749.0,866.0 753.0,854.0 763.0,842.0 777.0,834.0 852.0,816.0 867.0,811.0 890.0,800.0 908.0,785.0 913.0,778.0 917.0,767.0 917.0,758.0 Z" fill="#F4F4F4" fill-rule="evenodd"/>
</svg>
